<?xml version="1.0" encoding="utf-8"?>
<!-- Generator: Adobe Illustrator 22.0.0, SVG Export Plug-In . SVG Version: 6.00 Build 0)  -->
<svg version="1.1" id="Layer_1" xmlns="http://www.w3.org/2000/svg" xmlns:xlink="http://www.w3.org/1999/xlink" x="0px" y="0px"
	 viewBox="0 0 155.6 59.2" style="enable-background:new 0 0 155.6 59.2;" xml:space="preserve">
<style type="text/css">
	.st0{fill:#377DFF;}
	.st1{opacity:0.65;fill:#3F7DE0;enable-background:new    ;}
	.st2{opacity:0.5;fill:#00DFFC;enable-background:new    ;}
	.st3{opacity:0.7;fill:#3F7DE0;enable-background:new    ;}
</style>
<g>
	<path class="st0" d="M60.1,15.3l-8.8,25.9h3.5l2.7-8.1h9.2l2.8,8.1H73l-8.8-25.9H60.1z M58.2,30.4l2.5-7.5c0.5-1.6,0.9-3.1,1.3-4.7
		h0.1c0.4,1.5,0.8,3,1.3,4.7l2.5,7.5H58.2z"/>
	<path class="st0" d="M86.3,22.1c-3,0-5.2,1.3-6.6,3.6h-0.1l-0.2-3.2h-3c0.1,1.8,0.2,3.7,0.2,6.1v20.1h3.3V38.7H80
		c1.1,1.8,3.3,2.9,5.7,2.9c4.4,0,8.4-3.3,8.4-10C94.2,25.9,90.8,22.1,86.3,22.1z M85.1,38.9c-2.4,0-4.5-1.6-5.1-4
		c-0.1-0.4-0.2-0.9-0.2-1.4v-3.2c0-0.5,0.1-1,0.2-1.4c0.7-2.5,2.8-4.2,5.1-4.2c3.6,0,5.5,3.2,5.5,6.9C90.8,36,88.7,38.9,85.1,38.9z"
		/>
	<path class="st0" d="M106.3,22.1c-5.1,0-9.2,3.6-9.2,9.9c0,5.9,3.9,9.6,8.9,9.6c4.5,0,9.3-3,9.3-9.9
		C115.2,26,111.6,22.1,106.3,22.1z M106.1,39c-3.3,0-5.6-3.1-5.6-7.1c0-3.5,1.7-7.2,5.7-7.2c4,0,5.6,4,5.6,7.1
		C111.8,36,109.4,39,106.1,39z"/>
	<rect x="119.5" y="13.9" class="st0" width="3.4" height="27.3"/>
	<rect x="128.6" y="13.9" class="st0" width="3.4" height="27.3"/>
	<path class="st0" d="M145.5,22.1c-5.1,0-9.2,3.6-9.2,9.9c0,5.9,3.9,9.6,8.9,9.6c4.5,0,9.3-3,9.3-9.9
		C154.4,26,150.8,22.1,145.5,22.1z M145.3,39c-3.3,0-5.6-3.1-5.6-7.1c0-3.5,1.7-7.2,5.7-7.2c4,0,5.6,4,5.6,7.1
		C151,36,148.6,39,145.3,39z"/>
</g>
<path class="st1" d="M23,47L23,47c-9.9,0-18-8-18-18l0,0c0-9.9,8-18,18-18h11.3c3.7,0,6.6,3,6.6,6.6V29C41,38.9,32.9,47,23,47z"/>
<path class="st2" d="M28,41.9L28,41.9c-9.9,0-18-8-18-18l0,0c0-9.9,8-18,18-18h11.3C43,6,46,9,46,12.6V24C46,33.9,38,41.9,28,41.9z"
	/>
<path class="st3" d="M18,52L18,52C8,52,0,44,0,34l0,0c0-9.9,8-18,18-18h11.3c3.7,0,6.6,3,6.6,6.6V34C35.9,44,27.9,52,18,52z"/>
<path class="st0" d="M21.8,24h-2.4L14,39.6h2.1l1.6-4.9h5.5l1.7,4.9h2.2L21.8,24z M18.2,33.1l1.5-4.5c0.3-0.9,0.6-1.9,0.8-2.8h0
	c0.2,0.9,0.5,1.8,0.8,2.8l1.5,4.5H18.2z"/>
</svg>
