<svg xmlns="http://www.w3.org/2000/svg" viewBox="0 0 46 46"><path d="M23 41c-9.9 0-18-8-18-18 0-9.9 8-18 18-18h11.3C38 5 41 8 41 11.7V23c0 9.9-8.1 18-18 18z" opacity=".65" fill="#3f7de0"/><path d="M28 35.9c-9.9 0-18-8-18-18 0-9.9 8-18 18-18h11.3C43 0 46 3 46 6.6V18c0 9.9-8 17.9-18 17.9z" opacity=".5" fill="#00dffc"/><path d="M18 46C8 46 0 38 0 28c0-9.9 8-18 18-18h11.3c3.7 0 6.6 3 6.6 6.6V28c0 10-8 18-17.9 18z" opacity=".7" fill="#377dff"/><path d="M23.2 15.7h-2.5L15.2 32h2.2l1.7-5.1h5.8l1.7 5.1h2.2l-5.6-16.3zm-3.7 9.5l1.6-4.7c.3-1 .6-2 .8-2.9.2.9.5 1.9.8 3l1.6 4.7h-4.8z" fill="#606060"/></svg>