<svg id="Layer_1" xmlns="http://www.w3.org/2000/svg" viewBox="0 0 155.6 59.2"><style>.st0{fill:#377dff}</style><path class="st0" d="M60.1 15.3l-8.8 25.9h3.5l2.7-8.1h9.2l2.8 8.1H73l-8.8-25.9h-4.1zm-1.9 15.1l2.5-7.5c.5-1.6.9-3.1 1.3-4.7h.1c.4 1.5.8 3 1.3 4.7l2.5 7.5h-7.7zM86.3 22.1c-3 0-5.2 1.3-6.6 3.6h-.1l-.2-3.2h-3c.1 1.8.2 3.7.2 6.1v20.1h3.3v-10h.1c1.1 1.8 3.3 2.9 5.7 2.9 4.4 0 8.4-3.3 8.4-10 .1-5.7-3.3-9.5-7.8-9.5zm-1.2 16.8c-2.4 0-4.5-1.6-5.1-4-.1-.4-.2-.9-.2-1.4v-3.2c0-.5.1-1 .2-1.4.7-2.5 2.8-4.2 5.1-4.2 3.6 0 5.5 3.2 5.5 6.9.2 4.4-1.9 7.3-5.5 7.3zM106.3 22.1c-5.1 0-9.2 3.6-9.2 9.9 0 5.9 3.9 9.6 8.9 9.6 4.5 0 9.3-3 9.3-9.9-.1-5.7-3.7-9.6-9-9.6zm-.2 16.9c-3.3 0-5.6-3.1-5.6-7.1 0-3.5 1.7-7.2 5.7-7.2s5.6 4 5.6 7.1c0 4.2-2.4 7.2-5.7 7.2zM119.5 13.9h3.4v27.3h-3.4zM128.6 13.9h3.4v27.3h-3.4zM145.5 22.1c-5.1 0-9.2 3.6-9.2 9.9 0 5.9 3.9 9.6 8.9 9.6 4.5 0 9.3-3 9.3-9.9-.1-5.7-3.7-9.6-9-9.6zm-.2 16.9c-3.3 0-5.6-3.1-5.6-7.1 0-3.5 1.7-7.2 5.7-7.2s5.6 4 5.6 7.1c0 4.2-2.4 7.2-5.7 7.2z"/><path d="M23 47c-9.9 0-18-8-18-18 0-9.9 8-18 18-18h11.3c3.7 0 6.6 3 6.6 6.6V29c.1 9.9-8 18-17.9 18z" opacity=".65" fill="#3f7de0"/><path d="M28 41.9c-9.9 0-18-8-18-18 0-9.9 8-18 18-18h11.3C43 6 46 9 46 12.6V24c0 9.9-8 17.9-18 17.9z" opacity=".5" fill="#00dffc"/><path d="M18 52C8 52 0 44 0 34c0-9.9 8-18 18-18h11.3c3.7 0 6.6 3 6.6 6.6V34c0 10-8 18-17.9 18z" opacity=".7" fill="#3f7de0"/><path class="st0" d="M21.8 24h-2.4L14 39.6h2.1l1.6-4.9h5.5l1.7 4.9h2.2L21.8 24zm-3.6 9.1l1.5-4.5c.3-.9.6-1.9.8-2.8.2.9.5 1.8.8 2.8l1.5 4.5h-4.6z"/></svg>