<?xml version="1.0" encoding="utf-8"?>
<!-- Generator: Adobe Illustrator 22.0.0, SVG Export Plug-In . SVG Version: 6.00 Build 0)  -->
<svg version="1.1" id="Layer_1" xmlns="http://www.w3.org/2000/svg" xmlns:xlink="http://www.w3.org/1999/xlink" x="0px" y="0px"
	 viewBox="0 0 155.6 59.2" style="enable-background:new 0 0 155.6 59.2;" xml:space="preserve">
<style type="text/css">
	.st0{fill:#377DFF;}
	.st1{font-family:'MyriadPro-Regular';}
	.st2{font-size:38.4px;}
	.st3{opacity:0.65;fill:#3F7DE0;enable-background:new    ;}
	.st4{opacity:0.5;fill:#00DFFC;enable-background:new    ;}
	.st5{opacity:0.7;fill:#3F7DE0;enable-background:new    ;}
	.st6{font-size:23.1437px;}
</style>
<text transform="matrix(1 0 0 1 50.374 41.1582)" class="st0 st1 st2">Apollo</text>
<path class="st3" d="M23,47L23,47c-9.9,0-18-8-18-18l0,0c0-9.9,8-18,18-18h11.3c3.7,0,6.6,3,6.6,6.6V29C41,38.9,32.9,47,23,47z"/>
<path class="st4" d="M28,41.9L28,41.9c-9.9,0-18-8-18-18l0,0c0-9.9,8-18,18-18h11.3C43,6,46,9,46,12.6V24C46,33.9,38,41.9,28,41.9z"
	/>
<path class="st5" d="M18,52L18,52C8,52,0,44,0,34l0,0c0-9.9,8-18,18-18h11.3c3.7,0,6.6,3,6.6,6.6V34C35.9,44,27.9,52,18,52z"/>
<text transform="matrix(1 0 0 1 13.3999 39.4992)" class="st0 st1 st6">A</text>
</svg>
